<svg xmlns="http://www.w3.org/2000/svg" viewBox="0 0 160 157">
  <path fill="#fecc00" fill-rule="evenodd" d="M84.52,43.41c5.2,6.86,6.67,16.25,3.02,24.73-5.4,12.53-19.94,18.32-32.47,12.92-6.66-2.87-11.41-8.31-13.6-14.67,2,.31,3.49.11,4.76-.57.66-.35,1.27-.83,1.86-1.43.31-.32.61-.66.92-1.04.49-.61.98-1.3,1.51-2.07.97-1.5,1.6-3.1,2.14-4.7.48-1.44.89-2.88,1.4-4.25.65-1.75,1.46-3.38,2.81-4.74.41-.42.87-.81,1.4-1.17.66-.46,1.42-.87,2.3-1.22h0c.68-.19,1.33-.3,1.96-.34.71-.05,1.39-.01,2.06.08.7.1,1.38.26,2.06.45,1.11.41,2.26.69,3.47,1.05.34.1.68.21,1.02.33.69.24,3.65,1.2,6.94.39,1.07-.26,2.33-.79,3.6-1.55.98-.59,1.96-1.33,2.85-2.2h-.01,0ZM68.34,50.25c4.48,1.93,6.55,7.13,4.62,11.61s-7.13,6.55-11.61,4.62-6.55-7.13-4.62-11.61c1.93-4.48,7.13-6.55,11.61-4.62Z"/>
  <path fill="#934e25" fill-rule="evenodd" d="M55.96,45.38c-1.35,1.36-2.16,2.99-2.81,4.74-.51,1.37-.92,2.81-1.4,4.25-.54,1.6-1.17,3.21-2.14,4.7-.52.77-1.02,1.46-1.51,2.07-.31.38-.61.73-.92,1.04-.59.6-1.19,1.08-1.86,1.43-1.42.75-3.1.92-5.46.44-.05-.01-.09-.02-.14-.04-.94-.24-1.73-.54-2.4-.91-.17-.1-.34-.2-.5-.3-.04-.02-.07-.05-.11-.07-.57-.39-1.05-.84-1.47-1.35-.51-.61-.93-1.32-1.35-2.11-.25-.48-.5-1-.75-1.55-1.24-2.67-1.68-5.61-1.56-8.65.25-5.89,2.66-12.16,5.62-17.61,1.08-1.99,2.24-3.86,3.4-5.57,1.27-1.88,2.51-3.56,3.99-5.19.37-.41.75-.8,1.13-1.18.46-.46.93-.9,1.41-1.32.93-.81,1.9-1.56,2.92-2.26.67-.46,1.36-.89,2.09-1.31.1-.06.19-.11.29-.17,1.11-.63,2.28-1.23,3.55-1.82.16-.08.33-.14.49-.22,2.28-1,4.47-1.58,6.47-1.82.48-.06.95-.1,1.41-.12.11,0,.23,0,.34-.02,1.1-.03,2.12.04,3.05.19.4.06.78.14,1.14.23h0c.59.15,1.17.31,1.73.48,3.04.92,5.7,2.17,7.96,3.71.87.59,1.68,1.23,2.43,1.9,1.05.95,1.98,1.97,2.79,3.06,1.58,2.15,2.66,4.56,3.2,7.16.52,2.5.54,5.17.04,7.95-.23,1.21-.68,2.33-1.27,3.35-.35.59-.74,1.15-1.18,1.67-1.11,1.34-2.47,2.43-3.82,3.25-1.26.76-2.53,1.29-3.6,1.55-3.29.81-6.25-.15-6.94-.39-.35-.12-.69-.23-1.02-.33-1.21-.36-2.36-.64-3.47-1.05-.68-.19-1.36-.35-2.06-.45-.67-.09-1.35-.13-2.06-.08-.63.04-1.28.15-1.96.34h0c-.88.35-1.64.76-2.3,1.22-.52.36-.98.75-1.4,1.17h0,0ZM100.59,25.39c2.35,1.08,4.08,3.56,4.81,6.21.04.13.07.27.1.4.19.82.28,1.64.27,2.45-.05,2.73-1.35,5.15-4.37,5.84-3.18.73-6.09.27-8.26-.92s-3.61-3.11-3.84-5.31c-.1-.93.02-1.91.4-2.91.47-1.26,1.35-2.53,2.69-3.76.04-.04.08-.07.12-.11.11-.1.22-.19.33-.28,1.28-1.05,2.51-1.68,3.68-1.97.05,0,.11-.03.16-.04.85-.19,1.66-.2,2.42-.06.02,0,.04,0,.06,0,.5.09.97.25,1.43.46h0ZM97.84,17.21c.83,2.95-1.18,5.51-3.66,6.42-2.16.79-4.68.31-5.98-2.27-1.13-2.12-.79-4.02.27-5.39,1.41-1.83,4.09-2.75,6.27-2.1.32.1.63.23.93.4.64.37,1.21.91,1.64,1.65.21.37.39.78.53,1.25,0,.02,0,.04.01.05h-.01,0ZM64.47,8.42c-.18.12-.37.21-.57.28-1.65.59-3.8-.32-4.81-2.21-.24-.44-.41-.94-.51-1.48,0-.04-.02-.09-.02-.13-.18-.82-.02-1.85.41-2.74.42-.88,1.09-1.64,1.96-1.97.26-.1.55-.16.84-.17h.2c.7,0,1.46.37,2.13.97,1.38,1.21,2.42,3.28,1.92,4.72-.2,1.37-.78,2.26-1.55,2.75h0v-.02h0ZM87.71,12.68c-.59,1.11-1.36,2.08-2.3,2.58-.23.12-.46.22-.71.28-1.23.38-2.44.2-3.42-.35-.35-.2-.67-.44-.95-.72-.45-.45-.81-.99-1.06-1.6-.32-.8-.43-1.72-.27-2.7.04-.24.09-.47.16-.7.27-.9.75-1.7,1.36-2.36.8-.87,1.83-1.52,2.89-1.85,1.17-.36,2.38-.33,3.39.21,1.03.54,1.84,1.61,2.19,3.33-.14.91-.43,1.99-.88,3.03-.03.07-.06.13-.09.2-.1.22-.21.44-.32.66h.01,0ZM77.3,9.06c-1.36,1.58-4.16,1.69-6.24.6-.61-.32-1.15-.74-1.58-1.25-.8-.96-1.19-2.26-.81-3.84.07-.27.15-.52.25-.77.21-.53.5-1,.83-1.41.01-.02.03-.03.04-.05,2.27-2.69,6.78-2.37,8,1.92.19.66.29,1.41.31,2.26v.21c0,.98-.31,1.75-.8,2.32h0Z"/>
  <path fill="#009846" fill-rule="evenodd" d="M112.91,115.94c-8.44-1.71-15.75-7.79-18.61-16.56-4.23-12.97,2.86-26.93,15.83-31.16,6.89-2.24,14.06-1.31,19.89,2.03-1.7,1.08-2.69,2.22-3.2,3.57-.26.7-.41,1.46-.45,2.3-.02.44-.03.9,0,1.39.04.78.12,1.63.24,2.55.26,1.76.84,3.38,1.5,4.95.58,1.4,1.24,2.75,1.76,4.11.67,1.74,1.13,3.5,1.02,5.42-.04.58-.12,1.18-.28,1.8-.19.78-.49,1.59-.92,2.43h0c-.38.59-.79,1.1-1.24,1.55-.5.5-1.04.93-1.6,1.3-.59.39-1.2.72-1.84,1.02-1.1.43-2.16.98-3.3,1.5-.32.15-.64.3-.98.43-.67.28-3.53,1.51-5.47,4.3-.63.91-1.23,2.13-1.68,3.54-.34,1.09-.6,2.29-.69,3.53h0ZM120.54,100.12c-4.64,1.51-9.63-1.02-11.14-5.66s1.02-9.63,5.66-11.14,9.63,1.02,11.14,5.66-1.02,9.63-5.66,11.14Z"/>
  <path fill="#934e25" fill-rule="evenodd" d="M132.91,95.46c.16-1.91-.27-3.68-.89-5.44-.49-1.37-1.1-2.74-1.66-4.15-.62-1.57-1.16-3.21-1.38-4.98-.09-.93-.16-1.77-.18-2.56,0-.49,0-.95.04-1.39.07-.84.22-1.59.5-2.29.6-1.49,1.78-2.7,3.9-3.85.04-.02.09-.04.13-.06.88-.42,1.67-.69,2.42-.84.2-.04.39-.07.58-.09.04,0,.09,0,.13-.01.69-.07,1.34-.03,1.99.09.78.14,1.56.41,2.39.75.5.21,1.02.45,1.58.71,2.67,1.25,4.9,3.22,6.75,5.63,3.6,4.67,5.78,11.02,7.01,17.1.45,2.22.77,4.4.98,6.45.24,2.26.37,4.34.28,6.54-.02.55-.06,1.1-.11,1.63-.06.65-.14,1.28-.23,1.92-.19,1.22-.45,2.41-.79,3.61-.22.78-.47,1.56-.75,2.35-.04.1-.08.21-.11.31-.44,1.2-.96,2.41-1.55,3.67-.08.16-.16.32-.24.48-1.11,2.24-2.41,4.08-3.79,5.55-.33.35-.67.68-1,.99-.08.08-.16.16-.25.23-.82.73-1.65,1.33-2.46,1.82-.34.21-.68.39-1.02.56h0c-.55.27-1.09.51-1.63.75-2.92,1.25-5.77,2-8.48,2.28-1.05.11-2.08.14-3.08.11-1.42-.05-2.79-.23-4.1-.56-2.59-.63-4.97-1.79-7.05-3.43-2-1.58-3.74-3.61-5.14-6.06-.6-1.08-.98-2.22-1.18-3.38-.11-.68-.17-1.36-.17-2.03,0-1.74.33-3.45.84-4.94.48-1.4,1.11-2.61,1.76-3.5,2-2.74,4.88-3.91,5.57-4.17.34-.13.67-.27.99-.41,1.16-.5,2.22-1.02,3.33-1.42.64-.29,1.27-.61,1.86-.98.57-.36,1.12-.77,1.63-1.26.46-.44.88-.94,1.28-1.52h0c.45-.83.76-1.64.98-2.41.17-.61.27-1.21.32-1.79h0ZM111.56,139.46c-2.49.68-5.42-.1-7.67-1.66-.11-.08-.23-.16-.34-.24-.67-.5-1.28-1.08-1.78-1.7-1.71-2.12-2.27-4.81-.4-7.28,1.97-2.6,4.49-4.12,6.92-4.6,2.43-.48,4.77.07,6.35,1.6.67.65,1.21,1.48,1.57,2.48.45,1.26.6,2.81.35,4.61,0,.05-.01.1-.02.16-.02.14-.04.28-.07.43-.3,1.63-.84,2.9-1.55,3.88-.03.05-.07.09-.1.13-.53.69-1.14,1.22-1.81,1.6-.02.01-.04.02-.06.03-.44.25-.91.43-1.39.56h0ZM118.92,143.96c-2.53-1.73-2.64-4.98-1.32-7.27,1.15-1.99,3.38-3.25,6.04-2.11,2.23.9,3.19,2.57,3.26,4.3.1,2.31-1.36,4.74-3.45,5.64-.31.13-.63.23-.97.29-.73.13-1.51.08-2.31-.21-.4-.14-.8-.35-1.21-.62-.02-.01-.03-.02-.04-.03h0ZM150.14,129.24c.06-.21.15-.4.26-.58.88-1.52,3.11-2.2,5.11-1.4.47.19.92.45,1.34.81.03.03.07.06.1.09.67.52,1.2,1.4,1.45,2.36.24.94.22,1.95-.23,2.76-.14.25-.31.48-.53.68-.05.05-.1.09-.15.13-.53.46-1.35.65-2.26.63-1.83-.04-3.96-.96-4.5-2.38-.73-1.17-.85-2.23-.58-3.1h-.01ZM129.6,140.91c-.26-1.23-.29-2.47.1-3.46.1-.24.21-.46.36-.67.7-1.08,1.73-1.72,2.85-1.93.39-.07.79-.09,1.19-.06.63.05,1.26.23,1.84.55.76.41,1.44,1.04,1.94,1.89.12.21.23.42.33.64.37.86.52,1.78.48,2.69-.05,1.19-.42,2.34-1.03,3.27-.67,1.02-1.61,1.78-2.73,2.02-1.14.24-2.45-.05-3.82-1.14-.48-.78-.95-1.8-1.28-2.88l-.06-.21c-.07-.23-.13-.47-.18-.71h.01ZM139.9,137c.02-2.09,2.11-3.97,4.4-4.47.67-.15,1.35-.18,2.01-.06,1.23.22,2.37.96,3.09,2.42.12.25.22.5.3.75.18.55.26,1.09.27,1.61v.06c-.01,3.52-3.67,6.18-7.36,3.67-.56-.38-1.13-.89-1.68-1.53-.05-.05-.09-.11-.14-.16-.62-.75-.89-1.53-.88-2.29h-.01,0Z"/>
  <path fill="#00a0e3" fill-rule="evenodd" d="M42.47,103.41c6.78-5.32,16.14-6.93,24.68-3.42,12.62,5.19,18.64,19.64,13.44,32.26-2.76,6.7-8.13,11.54-14.45,13.83.28-2,.05-3.49-.64-4.75-.36-.66-.85-1.25-1.46-1.83-.32-.3-.67-.6-1.06-.9-.62-.48-1.32-.96-2.1-1.47-1.51-.95-3.12-1.55-4.73-2.06-1.45-.46-2.89-.84-4.27-1.33-1.76-.62-3.4-1.41-4.78-2.73-.42-.41-.82-.86-1.19-1.38-.47-.66-.89-1.41-1.26-2.28h0c-.2-.67-.32-1.32-.38-1.95-.06-.71-.03-1.39.05-2.06.09-.7.23-1.39.41-2.07.39-1.12.65-2.27,1-3.48.1-.34.2-.68.31-1.03.23-.7,1.14-3.67.28-6.95-.28-1.07-.83-2.32-1.61-3.57-.61-.97-1.36-1.94-2.24-2.81h0v-.02h0ZM49.57,119.48c1.86-4.51,7.02-6.66,11.53-4.81,4.51,1.86,6.66,7.02,4.81,11.53-1.86,4.51-7.02,6.66-11.53,4.81-4.51-1.86-6.66-7.02-4.81-11.53Z"/>
  <path fill="#934e25" fill-rule="evenodd" d="M45.47,132.17c1.38,1.32,3.02,2.11,4.78,2.73,1.38.49,2.82.87,4.27,1.33,1.61.51,3.22,1.12,4.73,2.06.78.51,1.48.99,2.1,1.47.39.3.74.6,1.06.9.61.58,1.1,1.18,1.46,1.83.78,1.41.97,3.09.53,5.45,0,.05-.02.09-.03.14-.23.95-.52,1.74-.87,2.41-.09.18-.19.34-.29.51-.02.04-.05.07-.07.11-.38.58-.82,1.06-1.33,1.49-.61.52-1.3.96-2.09,1.38-.48.26-.99.51-1.54.78-2.65,1.28-5.58,1.77-8.62,1.7-5.9-.15-12.2-2.46-17.69-5.34-2-1.05-3.9-2.18-5.63-3.3-1.9-1.24-3.6-2.45-5.25-3.9-.41-.36-.81-.74-1.2-1.11-.46-.45-.91-.92-1.34-1.39-.83-.91-1.59-1.87-2.31-2.89-.47-.66-.91-1.35-1.35-2.07-.06-.1-.12-.19-.17-.29-.65-1.1-1.27-2.26-1.87-3.52-.08-.16-.15-.33-.22-.49-1.04-2.27-1.65-4.44-1.92-6.44-.07-.48-.11-.95-.14-1.4,0-.11-.02-.23-.02-.34-.05-1.09,0-2.12.14-3.06.06-.4.13-.78.21-1.15h0c.14-.59.29-1.17.45-1.74.87-3.06,2.08-5.74,3.58-8.02.58-.88,1.2-1.7,1.86-2.46.93-1.07,1.94-2.02,3.02-2.83,2.13-1.61,4.52-2.73,7.11-3.31,2.49-.56,5.16-.63,7.94-.17,1.22.21,2.34.64,3.37,1.22.6.34,1.16.73,1.69,1.15,1.35,1.09,2.47,2.43,3.31,3.77.78,1.25,1.33,2.51,1.61,3.57.86,3.28-.05,6.25-.28,6.95-.11.35-.22.69-.31,1.03-.34,1.21-.61,2.37-1,3.48-.18.68-.33,1.37-.41,2.07-.08.67-.11,1.35-.05,2.06.05.63.17,1.28.38,1.95h0c.37.87.79,1.62,1.26,2.28.37.52.77.97,1.19,1.38h0l-.05.02h0ZM24.76,87.87c1.04-2.36,3.49-4.14,6.13-4.91.13-.04.27-.08.4-.11.81-.2,1.64-.31,2.44-.31,2.73,0,5.17,1.27,5.91,4.28.78,3.17.37,6.08-.79,8.27s-3.06,3.66-5.25,3.92c-.93.11-1.91,0-2.92-.35-1.26-.45-2.55-1.3-3.81-2.63-.04-.04-.07-.08-.11-.12-.1-.11-.19-.21-.29-.32-1.07-1.26-1.72-2.48-2.03-3.65,0-.05-.03-.11-.04-.16-.2-.84-.23-1.65-.1-2.42v-.06c.09-.5.23-.98.44-1.43h.02,0ZM16.63,90.75c2.93-.88,5.53,1.09,6.48,3.56.82,2.15.39,4.67-2.17,6.02-2.11,1.17-4,.86-5.4-.18-1.85-1.38-2.82-4.04-2.2-6.23.09-.32.22-.64.38-.94.36-.65.89-1.22,1.62-1.66.36-.22.77-.4,1.24-.55.02,0,.04,0,.05-.02h0ZM8.38,124.26c.12.18.22.37.29.57.62,1.64-.26,3.8-2.13,4.85-.44.24-.93.43-1.47.53-.04,0-.09.02-.13.02-.82.19-1.85.05-2.75-.36-.88-.4-1.65-1.06-2-1.92-.11-.26-.17-.54-.19-.84v-.2c-.02-.7.35-1.46.93-2.15,1.18-1.4,3.24-2.47,4.69-1.99,1.37.17,2.27.75,2.77,1.5h0,0ZM12.27,100.96c1.12.57,2.1,1.33,2.62,2.26.13.22.23.46.29.7.4,1.23.24,2.43-.3,3.43-.19.35-.43.67-.71.96-.44.46-.98.83-1.58,1.08-.8.33-1.72.46-2.69.31-.24-.03-.48-.09-.7-.15-.9-.25-1.71-.72-2.39-1.32-.89-.79-1.55-1.8-1.89-2.86-.38-1.16-.37-2.37.15-3.39.53-1.04,1.58-1.87,3.29-2.24.91.12,2,.4,3.04.83.07.03.13.06.2.08.22.1.44.2.66.31h.01ZM8.81,111.42c1.61,1.33,1.75,4.14.7,6.23-.31.61-.72,1.16-1.22,1.6-.95.82-2.24,1.23-3.82.87-.27-.06-.53-.14-.77-.24-.54-.21-1.01-.48-1.42-.81-.02-.01-.03-.03-.05-.04-2.72-2.23-2.48-6.74,1.79-8.03.65-.2,1.4-.32,2.25-.34h.21c.98-.01,1.75.28,2.33.76h0Z"/>
</svg>
